<?xml version="1.0" encoding="UTF-8" standalone="no"?>
<svg width="80px" height="80px" viewBox="0 0 80 80" version="1.1" xmlns="http://www.w3.org/2000/svg" xmlns:xlink="http://www.w3.org/1999/xlink">
    <!-- Generator: Sketch 3.8.3 (29802) - http://www.bohemiancoding.com/sketch -->
    <title>Group</title>
    <desc>Created with Sketch.</desc>
    <defs></defs>
    <g id="Desktop" stroke="none" stroke-width="1" fill="none" fill-rule="evenodd">
        <g id="noun_5638_cc" fill="#FFFFFF">
            <g id="Group">
                <g id="noun_8796_cc">
                    <g id="Group">
                        <path d="M78.184,71.468 C79.351,72.635 79.351,74.543 78.184,75.71 L75.709,78.185 C74.542,79.352 72.633,79.352 71.467,78.185 L1.817,8.535 C0.65,7.368 0.65,5.459 1.817,4.293 L4.293,1.817 C5.46,0.65 7.369,0.65 8.535,1.817 L78.184,71.468 L78.184,71.468 Z" id="Shape"></path>
                        <path d="M8.532,78.184 C7.365,79.35 5.456,79.35 4.29,78.184 L1.815,75.709 C0.648,74.543 0.648,72.633 1.815,71.467 L71.465,1.816 C72.632,0.649 74.54,0.649 75.707,1.816 L78.183,4.292 C79.349,5.459 79.349,7.368 78.183,8.534 L8.532,78.184 L8.532,78.184 Z" id="Shape"></path>
                    </g>
                </g>
            </g>
        </g>
    </g>
</svg>